<svg xmlns="http://www.w3.org/2000/svg" viewBox="0 0 874.02 243.49"><defs><style>.cls-1{fill:#101820;}</style></defs><g id="Camada_2" data-name="Camada 2"><g id="Camada_1-2" data-name="Camada 1"><path class="cls-1" d="M279,16.54a4.73,4.73,0,0,1,4.71-4.7H324q14.8,0,21.85,8.52a18.2,18.2,0,0,1,3.91,12q0,7.32-6.69,12.76,9.51,5.1,9.51,15.85T345,77.31q-7.6,5.56-18.65,5.57H283.69a4.55,4.55,0,0,1-3.32-1.36A4.44,4.44,0,0,1,279,78.23Zm18.68,22.89h26.51a6.81,6.81,0,0,0,5-1.86,7,7,0,0,0,1.88-5.2,7.06,7.06,0,0,0-1.88-5.22,6.75,6.75,0,0,0-5-1.89H297.66Zm0,30.08H326a7.41,7.41,0,0,0,5.84-2.28,9,9,0,0,0,2-6.25,9,9,0,0,0-2-6.24A7.41,7.41,0,0,0,326,52.46H297.66Z"/><path class="cls-1" d="M436.48,80.75c0,1.42-.84,2.13-2.53,2.13H422.06a8.1,8.1,0,0,1-4.13-1.36,10.12,10.12,0,0,1-3.45-3.29l-8.42-13.18q-5.21-8.13-12.58-8.13H381.39V78.23a4.64,4.64,0,0,1-4.66,4.65h-9.31a4.55,4.55,0,0,1-3.32-1.36,4.44,4.44,0,0,1-1.39-3.29V16.54a4.65,4.65,0,0,1,1.34-3.32,4.37,4.37,0,0,1,3.27-1.38h40.87q11.34,0,18.6,6.09t7.26,16.45q0,14.42-18.67,18.08a14.59,14.59,0,0,1,5.49,3.74,53.7,53.7,0,0,1,5.8,7.71l9,14.32A5.13,5.13,0,0,1,436.48,80.75ZM381.39,42.9h21.1a19.23,19.23,0,0,0,9-2,6.82,6.82,0,0,0,3.89-6.49,6.82,6.82,0,0,0-3.89-6.49,19.11,19.11,0,0,0-9-2h-21.1Z"/><path class="cls-1" d="M443.71,54.79V16.54a4.7,4.7,0,0,1,4.76-4.7h9.27A4.5,4.5,0,0,1,461,13.22a4.56,4.56,0,0,1,1.38,3.32V54.89q0,7.29,3.2,10.85t9.88,3.57h7.93q6.69,0,9.88-3.57t3.2-10.85V16.54a4.58,4.58,0,0,1,1.36-3.32,4.47,4.47,0,0,1,3.3-1.38h9.21a4.68,4.68,0,0,1,3.42,1.38,4.57,4.57,0,0,1,1.39,3.32V54.79q0,13.58-8,21t-23.29,7.46H475q-15.36,0-23.31-7.46T443.71,54.79Z"/><path class="cls-1" d="M528.34,78.23V16.54a4.64,4.64,0,0,1,1.33-3.32,4.37,4.37,0,0,1,3.27-1.38h14.57a6.37,6.37,0,0,1,3.66,1.38,12.37,12.37,0,0,1,3.18,3.32l29.92,46V16.44a4.42,4.42,0,0,1,1.36-3.27,4.54,4.54,0,0,1,3.3-1.33h8.52a4.61,4.61,0,0,1,4.66,4.7V78.23a4.66,4.66,0,0,1-4.66,4.65H581a7.08,7.08,0,0,1-4-1.36,10.72,10.72,0,0,1-3.22-3.29l-27.4-42.51V78.23a4.64,4.64,0,0,1-4.66,4.65H533a4.57,4.57,0,0,1-3.32-1.36A4.47,4.47,0,0,1,528.34,78.23Z"/><path class="cls-1" d="M681.9,75.53q-10.14,8.88-29.73,8.89t-29.75-8.89q-10.15-8.9-10.16-28.17t10.16-28.14q10.16-8.86,29.75-8.87t29.73,8.87Q692,28.09,692,47.36T681.9,75.53ZM668.35,29.67q-5-5.94-16.18-5.94T636,29.67q-5,6-5,17.71t5,17.69Q641,71,652.17,71t16.18-5.92q5-5.91,5-17.69T668.35,29.67Z"/><path class="cls-1" d="M283.71,169.34q-8.79-8.86-8.79-27.12t9.19-27q9.19-8.81,27.57-8.8h11.05a37.83,37.83,0,0,1,19.74,5.23q8.79,5.22,8.8,13.05a4.83,4.83,0,0,1-1.74,4.19,5.75,5.75,0,0,1-3.37,1.26h-5.89c-2.84,0-5.11-1.61-6.79-4.85s-5.85-4.86-12.49-4.86h-8.81q-10.86,0-14.72,4.66t-3.86,17.14q0,12.48,3.46,17.27t12.39,4.78h10.16q8,0,11.39-3.05t3.52-8.74h-11.2a4.64,4.64,0,0,1-4.65-4.66v-3.86a4.64,4.64,0,0,1,4.65-4.66h24.87a4.64,4.64,0,0,1,4.66,4.66v5.5q0,13.86-8.32,21.33t-24.43,7.45H309Q292.51,178.21,283.71,169.34Z"/><path class="cls-1" d="M363,173.06V111.38a4.37,4.37,0,0,1,1.38-3.27,4.61,4.61,0,0,1,3.32-1.34h57.13a4.42,4.42,0,0,1,3.29,1.39,4.56,4.56,0,0,1,1.37,3.31v4.66a4.66,4.66,0,0,1-4.66,4.66H381.69v14.42h37.15a4.64,4.64,0,0,1,4.66,4.65v4.66a4.64,4.64,0,0,1-4.66,4.66H381.69v14.61h43.05a4.4,4.4,0,0,1,3.22,1.34,4.45,4.45,0,0,1,1.34,3.27v4.76a4.46,4.46,0,0,1-1.39,3.29,4.57,4.57,0,0,1-3.32,1.36H367.71a4.68,4.68,0,0,1-4.7-4.75Z"/><path class="cls-1" d="M512.38,175.68q0,2.13-2.52,2.13H498a8.1,8.1,0,0,1-4.13-1.36,10,10,0,0,1-3.45-3.29L482,160q-5.2-8.13-12.58-8.13H457.29v21.31a4.64,4.64,0,0,1-4.66,4.65h-9.31a4.55,4.55,0,0,1-3.32-1.36,4.42,4.42,0,0,1-1.39-3.29V111.47a4.61,4.61,0,0,1,1.34-3.31,4.35,4.35,0,0,1,3.27-1.39h40.87q11.36,0,18.61,6.09T510,129.31q0,14.41-18.67,18.08a14.61,14.61,0,0,1,5.5,3.75,53.75,53.75,0,0,1,5.79,7.7l9,14.32A5.13,5.13,0,0,1,512.38,175.68Zm-55.09-37.85H478.4a19.22,19.22,0,0,0,9-2,7.36,7.36,0,0,0,0-13,19.22,19.22,0,0,0-9-2H457.29Z"/><path class="cls-1" d="M520.61,173.06V111.57a4.72,4.72,0,0,1,1.33-3.41,4.38,4.38,0,0,1,3.27-1.39h20.17a5.72,5.72,0,0,1,3.66,1.39,6.68,6.68,0,0,1,2.33,3.31L566,153.78l14.61-42.31a6.81,6.81,0,0,1,2.33-3.31,5.77,5.77,0,0,1,3.67-1.39h20.16a4.29,4.29,0,0,1,3.25,1.39,4.78,4.78,0,0,1,1.31,3.41v61.49a4.6,4.6,0,0,1-1.36,3.39,4.49,4.49,0,0,1-3.3,1.36h-8.91a4.49,4.49,0,0,1-3.3-1.36,4.6,4.6,0,0,1-1.36-3.39V124.65L575.6,173.36a7,7,0,0,1-2.43,3.14,5.93,5.93,0,0,1-3.66,1.31h-7.09a5.84,5.84,0,0,1-3.64-1.31,7.4,7.4,0,0,1-2.45-3.14l-17.44-48.71v48.41a4.64,4.64,0,0,1-1.36,3.39,4.49,4.49,0,0,1-3.3,1.36h-8.92a4.68,4.68,0,0,1-4.7-4.75Z"/><path class="cls-1" d="M619.69,173.26l12.44-47.17q5.05-19.28,32.9-19.32h26.7a3.88,3.88,0,0,1,3,1.39,4.71,4.71,0,0,1,1.21,3.22v61.88a4.27,4.27,0,0,1-1.39,3.24,4.63,4.63,0,0,1-3.32,1.31H682a4.5,4.5,0,0,1-4.66-4.65V160.67H642.09l-3.32,12.49a5.85,5.85,0,0,1-2.23,3.34,6,6,0,0,1-3.67,1.31h-9.76a3.31,3.31,0,0,1-3.59-3.07A7.83,7.83,0,0,1,619.69,173.26Zm26.06-26.61h31.56V120.79H663.19a13.19,13.19,0,0,0-13.08,10Z"/><path class="cls-1" d="M710.16,173.16V111.47a4.61,4.61,0,0,1,1.34-3.31,4.35,4.35,0,0,1,3.27-1.39h14.56a6.34,6.34,0,0,1,3.67,1.39,12,12,0,0,1,3.17,3.31l29.93,46V111.38a4.39,4.39,0,0,1,1.36-3.27,4.49,4.49,0,0,1,3.29-1.34h8.52a4.61,4.61,0,0,1,4.66,4.7v61.69a4.64,4.64,0,0,1-4.66,4.65H762.83a7.13,7.13,0,0,1-4-1.36,10.73,10.73,0,0,1-3.22-3.29l-27.4-42.51v42.51a4.64,4.64,0,0,1-4.65,4.65h-8.72a4.55,4.55,0,0,1-3.32-1.36A4.42,4.42,0,0,1,710.16,173.16Z"/><path class="cls-1" d="M798.15,173.16V111.47a4.61,4.61,0,0,1,1.34-3.31,4.35,4.35,0,0,1,3.27-1.39h14.56a6.34,6.34,0,0,1,3.67,1.39,12.15,12.15,0,0,1,3.17,3.31l29.93,46V111.38a4.39,4.39,0,0,1,1.36-3.27,4.49,4.49,0,0,1,3.29-1.34h8.52a4.61,4.61,0,0,1,4.66,4.7v61.69a4.64,4.64,0,0,1-4.66,4.65H850.82a7.13,7.13,0,0,1-4-1.36,10.73,10.73,0,0,1-3.22-3.29l-27.4-42.51v42.51a4.64,4.64,0,0,1-4.65,4.65h-8.72a4.55,4.55,0,0,1-3.32-1.36A4.42,4.42,0,0,1,798.15,173.16Z"/><path class="cls-1" d="M277.63,230.57V205a1.9,1.9,0,0,1,.55-1.38,1.81,1.81,0,0,1,1.36-.58h15.69q12.45,0,12.44,11.47t-12.44,11.46h-9.85v4.63a1.91,1.91,0,0,1-1.93,1.93h-3.87a1.94,1.94,0,0,1-1.38-.56A1.87,1.87,0,0,1,277.63,230.57Zm7.75-10.45h7.51a9.62,9.62,0,0,0,5.24-1.16c1.2-.77,1.79-2.27,1.79-4.48s-.59-3.71-1.79-4.49a9.71,9.71,0,0,0-5.24-1.16h-7.51Z"/><path class="cls-1" d="M318.07,230.53V204.92a1.79,1.79,0,0,1,.58-1.35A1.9,1.9,0,0,1,320,203h23.72a1.81,1.81,0,0,1,1.36.58,1.88,1.88,0,0,1,.57,1.38v1.93a1.93,1.93,0,0,1-1.93,1.93H325.82v6h15.43a1.91,1.91,0,0,1,1.93,1.93v1.93a1.93,1.93,0,0,1-1.93,1.94H325.82v6.06H343.7a1.81,1.81,0,0,1,1.33.56,1.85,1.85,0,0,1,.56,1.36v2a1.84,1.84,0,0,1-.58,1.37,1.91,1.91,0,0,1-1.38.56H320a1.95,1.95,0,0,1-1.95-2Z"/><path class="cls-1" d="M386.69,231.62c0,.59-.35.88-1.05.88H380.7a3.4,3.4,0,0,1-1.71-.56,4.19,4.19,0,0,1-1.43-1.37l-3.5-5.47q-2.16-3.37-5.22-3.37h-5v8.84a1.93,1.93,0,0,1-1.93,1.93H358a1.94,1.94,0,0,1-1.38-.56,1.87,1.87,0,0,1-.57-1.37V205a1.9,1.9,0,0,1,.55-1.38A1.79,1.79,0,0,1,358,203h17a11.6,11.6,0,0,1,7.72,2.53,8.45,8.45,0,0,1,3,6.83q0,6-7.75,7.51a6.06,6.06,0,0,1,2.28,1.55,22.43,22.43,0,0,1,2.41,3.2l3.74,5.94A2.13,2.13,0,0,1,386.69,231.62Zm-22.87-15.71h8.76a7.83,7.83,0,0,0,3.73-.85,3.05,3.05,0,0,0,0-5.39,8,8,0,0,0-3.73-.84h-8.76Z"/><path class="cls-1" d="M395,225a2,2,0,0,1,.72-1.73,2.38,2.38,0,0,1,1.4-.53h2.44a3,3,0,0,1,2.82,2q1,2,4.34,2l7.2.15c2.41,0,3.62-.79,3.62-2.37,0-1.19-1.48-2.13-4.42-2.81-1.32-.32-2.77-.63-4.36-.94s-3.17-.7-4.74-1.16a29.58,29.58,0,0,1-4.33-1.65,8.38,8.38,0,0,1-3.2-2.6,6.34,6.34,0,0,1-1.22-3.9,7.49,7.49,0,0,1,2.94-6.36q2.94-2.24,10.11-2.23l5.23.12a13.76,13.76,0,0,1,7.6,2.17c2.25,1.45,3.38,3.25,3.38,5.42a2,2,0,0,1-.72,1.75,2.38,2.38,0,0,1-1.38.53H420a3,3,0,0,1-2.81-2c-.65-1.35-2.09-2-4.34-2l-6.19-.12c-2.42,0-3.62.79-3.62,2.36,0,.87.76,1.57,2.29,2.12a38,38,0,0,0,5.55,1.45q3.27.63,6.55,1.51A13.63,13.63,0,0,1,423,219a6.46,6.46,0,0,1,2.29,5,7.5,7.5,0,0,1-2.95,6.37q-3,2.22-10.11,2.23l-6.23-.13a13.8,13.8,0,0,1-7.61-2.17Q395,228.21,395,225Z"/><path class="cls-1" d="M463.35,229.45q-4.22,3.69-12.34,3.69t-12.35-3.69q-4.21-3.69-4.22-11.69t4.22-11.68q4.21-3.69,12.35-3.69t12.34,3.69q4.2,3.67,4.2,11.68T463.35,229.45Zm-5.63-19q-2.07-2.47-6.71-2.47c-3.09,0-5.34.82-6.73,2.47s-2.08,4.09-2.08,7.35.69,5.7,2.08,7.34,3.64,2.46,6.73,2.46,5.33-.82,6.71-2.46,2.08-4.09,2.08-7.34S459.11,212.06,457.72,210.42Z"/><path class="cls-1" d="M478.38,230.57V205a1.91,1.91,0,0,1,.56-1.38,1.79,1.79,0,0,1,1.35-.58h6a2.59,2.59,0,0,1,1.52.58,5,5,0,0,1,1.32,1.38l12.42,19.1V204.92a1.84,1.84,0,0,1,.56-1.35,1.9,1.9,0,0,1,1.37-.56h3.54a1.91,1.91,0,0,1,1.93,2v25.6a1.91,1.91,0,0,1-1.93,1.93h-6.83a3,3,0,0,1-1.64-.56,4.48,4.48,0,0,1-1.34-1.37l-11.37-17.65v17.65A1.93,1.93,0,0,1,484,232.5h-3.62a1.9,1.9,0,0,1-1.37-.56A1.84,1.84,0,0,1,478.38,230.57Z"/><path class="cls-1" d="M519.09,230.61,524.25,211q2.1-8,13.66-8H549a1.61,1.61,0,0,1,1.27.58,2,2,0,0,1,.5,1.33v25.69a1.8,1.8,0,0,1-.57,1.35,2,2,0,0,1-1.38.54h-3.87a1.85,1.85,0,0,1-1.93-1.93v-5.18H528.39L527,230.57a2.61,2.61,0,0,1-2.45,1.93h-4a1.34,1.34,0,0,1-1.15-.46,1.3,1.3,0,0,1-.34-.81A3.54,3.54,0,0,1,519.09,230.61Zm10.82-11H543V208.83h-5.86A5.57,5.57,0,0,0,533.7,210a5.45,5.45,0,0,0-2,3Z"/><path class="cls-1" d="M563.26,230.61V205a1.92,1.92,0,0,1,.57-1.42,1.88,1.88,0,0,1,1.38-.58h3.87a1.81,1.81,0,0,1,1.36.58A1.92,1.92,0,0,1,571,205v21.67h17.91a1.95,1.95,0,0,1,1.93,2v1.93a1.86,1.86,0,0,1-.56,1.37,1.89,1.89,0,0,1-1.37.56H565.21a2,2,0,0,1-1.38-.54A1.8,1.8,0,0,1,563.26,230.61Z"/><path class="cls-1" d="M619.65,206.9V205a1.88,1.88,0,0,1,.55-1.4,1.91,1.91,0,0,1,1.4-.56h26.1a1.91,1.91,0,0,1,1.4.56,1.88,1.88,0,0,1,.55,1.4v1.93a1.88,1.88,0,0,1-.55,1.39,1.93,1.93,0,0,1-1.4.54h-9.17v21.78A1.8,1.8,0,0,1,638,232a1.91,1.91,0,0,1-1.37.54h-3.88a1.91,1.91,0,0,1-1.37-.54,1.8,1.8,0,0,1-.57-1.35V208.83H621.6a1.93,1.93,0,0,1-1.4-.54A1.88,1.88,0,0,1,619.65,206.9Z"/><path class="cls-1" d="M690.24,231.62c0,.59-.35.88-1,.88h-4.94a3.4,3.4,0,0,1-1.71-.56,4.19,4.19,0,0,1-1.43-1.37l-3.5-5.47q-2.16-3.37-5.22-3.37h-5v8.84a1.93,1.93,0,0,1-1.93,1.93h-3.87a1.94,1.94,0,0,1-1.38-.56,1.87,1.87,0,0,1-.57-1.37V205a1.9,1.9,0,0,1,.55-1.38,1.79,1.79,0,0,1,1.36-.58h17a11.6,11.6,0,0,1,7.72,2.53,8.45,8.45,0,0,1,3,6.83q0,6-7.75,7.51a6.06,6.06,0,0,1,2.28,1.55,22.43,22.43,0,0,1,2.41,3.2l3.74,5.94A2.13,2.13,0,0,1,690.24,231.62Zm-22.87-15.71h8.76a7.83,7.83,0,0,0,3.73-.85,3.05,3.05,0,0,0,0-5.39,8,8,0,0,0-3.73-.84h-8.76Z"/><path class="cls-1" d="M697.84,230.61,703,211q2.1-8,13.66-8h11.08a1.61,1.61,0,0,1,1.27.58,2,2,0,0,1,.5,1.33v25.69a1.77,1.77,0,0,1-.58,1.35,1.93,1.93,0,0,1-1.37.54h-3.87a1.85,1.85,0,0,1-1.93-1.93v-5.18H707.13l-1.37,5.18a2.47,2.47,0,0,1-.93,1.39,2.5,2.5,0,0,1-1.52.54h-4a1.33,1.33,0,0,1-1.15-.46,1.3,1.3,0,0,1-.34-.81A2.79,2.79,0,0,1,697.84,230.61Zm10.82-11h13.1V208.83h-5.87a5.56,5.56,0,0,0-3.44,1.12,5.45,5.45,0,0,0-2,3Z"/><path class="cls-1" d="M742,230.61V205a1.89,1.89,0,0,1,.58-1.38A1.85,1.85,0,0,1,744,203h3.82a2,2,0,0,1,2,2v25.6a1.85,1.85,0,0,1-.59,1.37,2,2,0,0,1-1.39.56H744a1.93,1.93,0,0,1-1.38-.54A1.81,1.81,0,0,1,742,230.61Z"/><path class="cls-1" d="M762.27,230.57V205a1.91,1.91,0,0,1,.56-1.38,1.79,1.79,0,0,1,1.35-.58h6.05a2.59,2.59,0,0,1,1.52.58,5,5,0,0,1,1.32,1.38l12.42,19.1V204.92a1.84,1.84,0,0,1,.56-1.35,1.9,1.9,0,0,1,1.37-.56H791a1.91,1.91,0,0,1,1.93,2v25.6A1.91,1.91,0,0,1,791,232.5h-6.83a3,3,0,0,1-1.64-.56,4.48,4.48,0,0,1-1.34-1.37l-11.37-17.65v17.65a1.93,1.93,0,0,1-1.94,1.93h-3.62a1.9,1.9,0,0,1-1.37-.56A1.84,1.84,0,0,1,762.27,230.57Z"/><path class="cls-1" d="M805.41,230.53V204.92a1.81,1.81,0,0,1,.57-1.35,1.94,1.94,0,0,1,1.38-.56h23.71a1.83,1.83,0,0,1,1.37.58A1.88,1.88,0,0,1,833,205v1.93a1.93,1.93,0,0,1-1.94,1.93H813.16v6h15.42a1.89,1.89,0,0,1,1.37.56,1.86,1.86,0,0,1,.57,1.37v1.93a1.95,1.95,0,0,1-1.94,1.94H813.16v6.06H831a1.9,1.9,0,0,1,1.89,1.92v2a1.87,1.87,0,0,1-.57,1.37,1.94,1.94,0,0,1-1.38.56H807.36a1.94,1.94,0,0,1-1.38-.56A1.92,1.92,0,0,1,805.41,230.53Z"/><path class="cls-1" d="M874,231.62c0,.59-.34.88-1,.88H868a3.46,3.46,0,0,1-1.72-.56,4.28,4.28,0,0,1-1.43-1.37l-3.49-5.47q-2.16-3.37-5.23-3.37h-5v8.84a1.93,1.93,0,0,1-1.94,1.93h-3.86a1.91,1.91,0,0,1-1.38-.56,1.84,1.84,0,0,1-.58-1.37V205a1.91,1.91,0,0,1,.56-1.38,1.79,1.79,0,0,1,1.36-.58h17a11.56,11.56,0,0,1,7.72,2.53,8.46,8.46,0,0,1,3,6.83q0,6-7.76,7.51a6,6,0,0,1,2.29,1.55,21.75,21.75,0,0,1,2.4,3.2l3.75,5.94A2.21,2.21,0,0,1,874,231.62Zm-22.86-15.71h8.76a7.86,7.86,0,0,0,3.73-.85,3.06,3.06,0,0,0,0-5.39,8,8,0,0,0-3.73-.84h-8.76Z"/><path class="cls-1" d="M0,88.61v66.31a41.72,41.72,0,0,0,12.22,29.5l46.89,46.89A41.7,41.7,0,0,0,86.5,243.48a10.89,10.89,0,0,1-2.34-1.08c-23.63-14.76-35.89-44.63-29.72-72,8.25-36.57,42.9-59.55,79.73-52.86,34.84,6.32,59.85,40.11,55.47,75.32-2.58,20.7-12.64,37-29.8,49a13.61,13.61,0,0,1-3.13,1.64,41.7,41.7,0,0,0,27.71-12.18l46.89-46.89a41.68,41.68,0,0,0,12.22-29.5V88.61a41.7,41.7,0,0,0-12.22-29.5L184.42,12.22A41.72,41.72,0,0,0,154.92,0H88.61a41.74,41.74,0,0,0-29.5,12.22l-9.2,9.2H70.12a3.1,3.1,0,0,1,3.1,3.1v5.87a3.09,3.09,0,0,1-3.1,3.09H37.85l-6.41,6.41h28.5A3.1,3.1,0,0,1,63,43v5.87a3.1,3.1,0,0,1-3.1,3.1H19.6l-.21,0-7.17,7.17A41.74,41.74,0,0,0,0,88.61ZM169.55,126c2.09-3.11,4.45-6.65,6.9-10.32l19.48,15c-3.4,5-6.71,9.86-9.71,14.28ZM40.5,96.68A43.45,43.45,0,0,1,83.59,60.56q38.23-.16,76.47,0a42.6,42.6,0,0,1,33.84,16c11.62,14,12.46,33.37,5.2,47.87-6.58-5.09-13-10-19.38-15.08a3.15,3.15,0,0,1-.6-2.46,19,19,0,0,0-4.8-15.49c-4.19-4.71-9.6-6.39-15.79-6.38q-36.7.09-73.42,0c-.94,0-1.89.05-2.83.11A18.93,18.93,0,0,0,64.6,107.1a3.12,3.12,0,0,1-1.46,3.46c-2.53,1.82-5,3.78-7.43,5.68l-11,8.42a3.19,3.19,0,0,1-.46-.41,8.14,8.14,0,0,1-.41-.77A45.44,45.44,0,0,1,40.5,96.68Z"/><path class="cls-1" d="M72.54,152.72A2.77,2.77,0,0,1,75.3,150H99q8.72,0,12.85,5a10.69,10.69,0,0,1,2.3,7.06,9.45,9.45,0,0,1-3.93,7.5,9.91,9.91,0,0,1,5.59,9.32q0,6.32-4.47,9.6a18.08,18.08,0,0,1-11,3.27h-25a2.68,2.68,0,0,1-2-.8,2.61,2.61,0,0,1-.81-1.93Zm11,13.45H99.1a4,4,0,0,0,2.94-1.09,4.79,4.79,0,0,0,0-6.13,4,4,0,0,0-2.94-1.11H83.52Zm0,17.68h16.66a4.36,4.36,0,0,0,3.43-1.34,6.21,6.21,0,0,0,0-7.34,4.36,4.36,0,0,0-3.43-1.34H83.52Z"/><path class="cls-1" d="M130.35,222q-5.16-5.22-5.17-15.95t5.41-15.9q5.4-5.18,16.21-5.17h6.49A22.29,22.29,0,0,1,164.9,188q5.16,3.07,5.17,7.67a2.86,2.86,0,0,1-1,2.47,3.41,3.41,0,0,1-2,.74H163.6q-2.5,0-4-2.86t-7.34-2.85h-5.18q-6.39,0-8.65,2.74T136.16,206q0,7.35,2,10.15C139.56,218,142,219,145.48,219h6c3.12,0,5.35-.59,6.69-1.79a6.68,6.68,0,0,0,2.07-5.14h-6.58a2.73,2.73,0,0,1-2.74-2.73V207a2.73,2.73,0,0,1,2.74-2.73h14.62A2.73,2.73,0,0,1,171,207v3.24q0,8.15-4.9,12.54t-14.35,4.38h-6.56Q135.53,227.18,130.35,222Z"/><path class="cls-1" d="M129.36,149.51c1.82.83,2.73,2.08,2.53,3.54-.14,1-.33,1.95-.49,2.92q-1.34,7.91-2.66,15.81c-.39,2.3-.77,4.59-1.17,7h.85c4,0,8,0,12,0a3.29,3.29,0,0,1,2.89,5.21q-7.14,11.16-14.26,22.32-6.22,9.74-12.46,19.48a3.3,3.3,0,0,1-4,1.59,3.25,3.25,0,0,1-2.11-3.62l5.19-28.24c0-.16,0-.34,0-.58h-.87c-4.29,0-8.58,0-12.87,0a3.25,3.25,0,0,1-3.15-1.72,3.3,3.3,0,0,1,.35-3.65q10.86-15.62,21.7-31.25c1.62-2.34,3.26-4.66,4.85-7a4.81,4.81,0,0,1,2.18-1.79Z"/></g></g></svg>